<svg width="32" height="392" viewBox="0 0 32 392" fill="none" xmlns="http://www.w3.org/2000/svg">
<mask id="mask0_2345_16614" style="mask-type:alpha" maskUnits="userSpaceOnUse" x="0" y="0" width="32" height="392">
<rect width="32" height="392" fill="#D9D9D9"/>
</mask>
<g mask="url(#mask0_2345_16614)">
<rect width="8" height="8" fill="#EA0049"/>
<rect x="8" y="8" width="8" height="8" fill="#EA0049"/>
<rect x="16" width="8" height="8" fill="#EA0049"/>
<rect y="80" width="8" height="8" fill="#EA0049"/>
<rect x="8" y="72" width="8" height="8" fill="#EA0049"/>
<rect x="8" y="88" width="8" height="8" fill="#EA0049"/>
<rect x="16" y="80" width="8" height="8" fill="#EA0049"/>
<rect y="160" width="8" height="8" fill="#EA0049"/>
<rect x="8" y="152" width="8" height="8" fill="#EA0049"/>
<rect x="8" y="168" width="8" height="8" fill="#EA0049"/>
<rect x="16" y="160" width="8" height="8" fill="#EA0049"/>
<rect y="240" width="8" height="8" fill="#EA0049"/>
<rect x="8" y="232" width="8" height="8" fill="#EA0049"/>
<rect x="8" y="248" width="8" height="8" fill="#EA0049"/>
<rect x="16" y="240" width="8" height="8" fill="#EA0049"/>
<rect y="320" width="8" height="8" fill="#EA0049"/>
<rect x="8" y="312" width="8" height="8" fill="#EA0049"/>
<rect x="8" y="328" width="8" height="8" fill="#EA0049"/>
<rect x="16" y="320" width="8" height="8" fill="#EA0049"/>
<rect x="16" y="16" width="8" height="8" fill="#EA0049"/>
<rect x="24" y="8" width="8" height="8" fill="#EA0049"/>
<rect x="24" y="24" width="8" height="8" fill="#EA0049"/>
<rect x="16" y="96" width="8" height="8" fill="#EA0049"/>
<rect x="24" y="88" width="8" height="8" fill="#EA0049"/>
<rect x="24" y="104" width="8" height="8" fill="#EA0049"/>
<rect x="16" y="176" width="8" height="8" fill="#EA0049"/>
<rect x="24" y="168" width="8" height="8" fill="#EA0049"/>
<rect x="24" y="184" width="8" height="8" fill="#EA0049"/>
<rect x="16" y="256" width="8" height="8" fill="#EA0049"/>
<rect x="24" y="248" width="8" height="8" fill="#EA0049"/>
<rect x="24" y="264" width="8" height="8" fill="#EA0049"/>
<rect x="16" y="336" width="8" height="8" fill="#EA0049"/>
<rect x="24" y="328" width="8" height="8" fill="#EA0049"/>
<rect x="24" y="344" width="8" height="8" fill="#EA0049"/>
<rect y="16" width="8" height="8" fill="#EA0049"/>
<rect y="32" width="8" height="8" fill="#EA0049"/>
<rect x="8" y="24" width="8" height="8" fill="#EA0049"/>
<rect y="96" width="8" height="8" fill="#EA0049"/>
<rect y="112" width="8" height="8" fill="#EA0049"/>
<rect x="8" y="104" width="8" height="8" fill="#EA0049"/>
<rect y="176" width="8" height="8" fill="#EA0049"/>
<rect y="192" width="8" height="8" fill="#EA0049"/>
<rect x="8" y="184" width="8" height="8" fill="#EA0049"/>
<rect y="256" width="8" height="8" fill="#EA0049"/>
<rect y="272" width="8" height="8" fill="#EA0049"/>
<rect x="8" y="264" width="8" height="8" fill="#EA0049"/>
<rect y="336" width="8" height="8" fill="#EA0049"/>
<rect y="352" width="8" height="8" fill="#EA0049"/>
<rect x="8" y="344" width="8" height="8" fill="#EA0049"/>
<rect x="8" y="40" width="8" height="8" fill="#EA0049"/>
<rect x="16" y="32" width="8" height="8" fill="#EA0049"/>
<rect x="16" y="48" width="8" height="8" fill="#EA0049"/>
<rect x="24" y="40" width="8" height="8" fill="#EA0049"/>
<rect x="8" y="120" width="8" height="8" fill="#EA0049"/>
<rect x="16" y="112" width="8" height="8" fill="#EA0049"/>
<rect x="16" y="128" width="8" height="8" fill="#EA0049"/>
<rect x="24" y="120" width="8" height="8" fill="#EA0049"/>
<rect x="8" y="200" width="8" height="8" fill="#EA0049"/>
<rect x="16" y="192" width="8" height="8" fill="#EA0049"/>
<rect x="16" y="208" width="8" height="8" fill="#EA0049"/>
<rect x="24" y="200" width="8" height="8" fill="#EA0049"/>
<rect x="8" y="280" width="8" height="8" fill="#EA0049"/>
<rect x="16" y="272" width="8" height="8" fill="#EA0049"/>
<rect x="16" y="288" width="8" height="8" fill="#EA0049"/>
<rect x="24" y="280" width="8" height="8" fill="#EA0049"/>
<rect x="8" y="360" width="8" height="8" fill="#EA0049"/>
<rect x="16" y="352" width="8" height="8" fill="#EA0049"/>
<rect x="16" y="368" width="8" height="8" fill="#EA0049"/>
<rect x="24" y="360" width="8" height="8" fill="#EA0049"/>
<rect y="48" width="8" height="8" fill="#EA0049"/>
<rect y="64" width="8" height="8" fill="#EA0049"/>
<rect x="8" y="56" width="8" height="8" fill="#EA0049"/>
<rect y="128" width="8" height="8" fill="#EA0049"/>
<rect y="144" width="8" height="8" fill="#EA0049"/>
<rect x="8" y="136" width="8" height="8" fill="#EA0049"/>
<rect y="208" width="8" height="8" fill="#EA0049"/>
<rect y="224" width="8" height="8" fill="#EA0049"/>
<rect x="8" y="216" width="8" height="8" fill="#EA0049"/>
<rect y="288" width="8" height="8" fill="#EA0049"/>
<rect y="304" width="8" height="8" fill="#EA0049"/>
<rect x="8" y="296" width="8" height="8" fill="#EA0049"/>
<rect y="368" width="8" height="8" fill="#EA0049"/>
<rect y="384" width="8" height="8" fill="#EA0049"/>
<rect x="8" y="376" width="8" height="8" fill="#EA0049"/>
<rect x="16" y="64" width="8" height="8" fill="#EA0049"/>
<rect x="24" y="56" width="8" height="8" fill="#EA0049"/>
<rect x="24" y="72" width="8" height="8" fill="#EA0049"/>
<rect x="16" y="144" width="8" height="8" fill="#EA0049"/>
<rect x="24" y="136" width="8" height="8" fill="#EA0049"/>
<rect x="24" y="152" width="8" height="8" fill="#EA0049"/>
<rect x="16" y="224" width="8" height="8" fill="#EA0049"/>
<rect x="24" y="216" width="8" height="8" fill="#EA0049"/>
<rect x="24" y="232" width="8" height="8" fill="#EA0049"/>
<rect x="16" y="304" width="8" height="8" fill="#EA0049"/>
<rect x="24" y="296" width="8" height="8" fill="#EA0049"/>
<rect x="24" y="312" width="8" height="8" fill="#EA0049"/>
<rect x="16" y="384" width="8" height="8" fill="#EA0049"/>
<rect x="24" y="376" width="8" height="8" fill="#EA0049"/>
</g>
</svg>
